ply
format ascii 1.0
element vertex 35
property float x
property float y
property float z
end_header
100.81029955173082 -38.75462149841427 -66.40587220724387
93.63721346475111 -31.384563688579675 -60.61190113229753
93.71497268232892 -46.86670956044911 -70.00680632581691
87.14607515112907 -25.70857215603546 -53.566165544022624
87.40343241675576 -55.527979622020794 -71.59218437911039
79.75682457552078 -21.892501680405246 -45.779485291000924
79.78827176219758 -46.60825459996768 -69.86680688388878
73.20717681517993 -26.376662774843368 -53.83357740596432
73.08073711728916 -38.927371464354266 -65.48962461403175
66.40070930868228 -32.192540789142114 -60.269685660630216
66.45861309337832 -46.76143584265746 -69.01562773668678
59.55276934432271 -39.41965427114094 -65.47270306427691
60.04642288150681 -54.98292011221163 -70.71942062338428
52.15595182641216 -32.62116689809508 -60.18122036001449
52.52777540817617 -46.89316551798488 -69.01387881466115
45.65594915922934 -27.191227593056325 -53.41863514262451
45.992073322458026 -39.22850192294847 -65.5146096633481
38.745215670673055 -32.91270043437103 -59.69639869593334
38.71254276728289 -46.82120556822916 -68.27340954757693
31.901508104485814 -27.76087009050464 -52.89423076118686
32.72625441617072 -54.468691468409176 -69.75443390114259
24.793247215376795 -23.93092095576027 -46.16991713252736
24.955405093872542 -47.11015634169003 -67.72556007429864
18.38569591040809 -28.100462861006164 -53.23384889935954
18.657074421190856 -39.959830505008014 -64.12782652659627
10.71752052964078 -24.871853117964235 -45.44414525540327
10.987698236144752 -34.14690367664214 -59.28738862444868
11.922368328446424 -47.17269182017681 -67.42570041834608
4.462566919071449 -40.40656676329134 -64.02474683768048
5.273700240986557 -53.74192578384894 -69.35395824704915
-3.1273517139840123 -33.97455152287415 -58.76364586730995
-2.6409863523738863 -47.24730492073981 -67.17001354605355
-8.993910539928876 -40.3949936794596 -63.43808431831508
-16.31232820667435 -34.589511893067254 -58.675468316587
-15.565118512184512 -46.98758478889194 -67.3884725798286
